# Blender 3.4.1
# www.blender.org
mtllib engine.mtl
o shuttle_motor_veliki_gornji_Circle.001
v -0.157679 1.139960 1.532007
v 1.002940 0.895410 1.540663
v 1.553683 0.129171 1.562745
v 0.365391 -0.878815 1.586015
v -1.531568 -0.116264 1.567186
v -1.209079 0.753434 1.544891
v -0.000217 0.819122 1.180173
v 1.045511 0.311161 1.200565
v -0.848793 -0.328680 1.218109
v -0.112835 0.822043 1.195974
v 0.519111 0.727395 1.198807
v 0.848440 0.551250 1.204020
v 0.722942 0.652776 1.205761
v 1.084550 0.045220 1.218819
v 1.078975 -0.020265 1.212278
v 0.965536 -0.212452 1.225017
v 0.848444 -0.327432 1.227144
v 0.519098 -0.503622 1.231175
v -0.000194 -0.598083 1.204673
v 0.112732 -0.598341 1.233057
v -0.519231 -0.503623 1.231172
v -0.723122 -0.428645 1.234376
v -1.044924 -0.086529 1.222384
v -1.078056 -0.019335 1.225574
v -1.045036 0.310539 1.211253
v -0.965665 0.436332 1.207904
v -0.849163 0.551841 1.193606
v -0.697863 0.649610 1.201190
v -0.519229 0.727400 1.198806
v 0.122235 0.876825 1.143312
v 0.822880 0.693173 1.158437
v 0.757168 0.689880 1.148223
v 1.107537 0.388966 1.156137
v 1.182348 0.014133 1.176418
v 1.177479 0.033532 1.165480
v 1.048063 -0.246367 1.172837
v 0.389652 -0.670777 1.193355
v 0.757180 -0.477760 1.178924
v 0.122230 -0.664713 1.183842
v -0.563502 -0.562074 1.181139
v -0.913122 -0.384134 1.186677
v -0.921028 -0.370933 1.176117
v -1.134402 -0.109651 1.169244
v -1.190852 0.234111 1.170538
v -1.170761 0.249029 1.159813
v -0.921026 0.583050 1.151029
v -0.480789 0.824270 1.154607
v -0.563510 0.774184 1.146005
v -0.149443 1.039430 1.150187
v 0.141028 1.015672 1.139654
v 0.142409 1.021062 1.144447
v 1.084499 0.757776 1.157093
v 0.677785 0.909888 1.142437
v 1.107918 0.679942 1.148483
v 1.364645 0.365583 1.156747
v 1.453711 0.039953 1.176245
v 1.408396 -0.065961 1.168095
v 0.549747 -0.843336 1.200149
v 1.107919 -0.467827 1.178660
v 0.677801 -0.697770 1.184709
v 0.141050 -0.803558 1.187490
v -0.417831 -0.767812 1.186549
v -1.449928 -0.175332 1.182230
v -0.911115 -0.596330 1.182040
v -1.261076 -0.317935 1.174719
v -1.416772 0.018817 1.165866
v -1.332618 0.446424 1.154618
v -1.155750 0.686109 1.158454
v -0.911101 0.808449 1.145097
v -0.417828 0.979925 1.140586
v 0.389596 0.889812 1.194526
v 0.116148 0.856351 1.199120
v 0.551380 0.766428 1.205854
v 0.901099 0.579269 1.211663
v 1.229780 -0.091366 1.219456
v 1.109594 0.323630 1.219754
v 1.151631 0.042067 1.228536
v 1.025410 -0.231647 1.233698
v 0.741019 -0.458225 1.238419
v -0.262125 -0.683180 1.235349
v 0.119721 -0.641679 1.241226
v -0.551522 -0.540828 1.240234
v -0.901260 -0.353593 1.236217
v -1.190846 -0.015138 1.217344
v -1.109717 -0.097904 1.230886
v -1.151767 0.183717 1.224781
v -0.913102 0.603169 1.201205
v -1.025545 0.457343 1.215527
v -0.741125 0.683856 1.208394
v -0.119830 0.867136 1.201823
v 0.201086 0.506954 1.257775
v -0.480002 -0.144048 1.197301
v -0.910829 0.016441 0.907146
v -1.340629 -0.052606 -0.997791
v 0.963989 -0.577070 -1.048036
v 1.159584 0.003165 0.252345
v 0.539820 -0.131131 1.191916
v 0.756957 -0.459413 0.355028
v -1.021969 0.376684 0.399509
v -1.039162 0.546360 -0.947020
v -0.436229 0.386731 1.252074
v -0.027652 -0.674206 0.278765
v 0.475294 0.771863 0.322572
v -0.570231 0.714697 0.421206
v 0.063985 -0.287498 1.199375
v 1.256766 0.366027 -0.964678
v -0.000064 0.896699 -0.915856
v -0.156231 -0.822427 -1.070920
v 0.932631 0.348689 0.797651
v -0.793291 -0.455948 0.262650
v -1.040788 -0.496718 -1.041248
v 0.035597 0.448956 1.212644
v 0.392656 0.332333 1.206200
v 0.478817 0.078046 1.147034
v -0.401912 -0.107852 1.163488
v -0.331162 0.347911 1.190189
v -1.151827 -0.176603 -1.015585
v 0.957178 -0.454846 -1.040727
v -1.005305 0.503185 -0.955532
v 0.143794 -0.754414 -1.068035
v 0.955331 0.504170 -0.954170
v -0.000067 0.826528 -0.925525
v -0.781665 -0.578654 -1.051377
v 1.196223 -0.002689 -0.999571
v 0.892605 0.012211 0.756820
v 0.941610 0.400309 0.355742
v -0.901809 -0.249727 0.402043
v -0.051490 -0.231991 1.149378
v -0.146118 -0.574192 0.344782
v 0.014471 0.747414 0.442637
v -0.497653 0.513812 0.891418
v 0.619962 -0.478457 0.272350
v 0.330622 -0.155911 1.158458
v -0.515536 0.141630 1.191710
v -1.035310 0.251539 0.215868
v 0.126292 0.846218 -0.929097
v 0.606927 0.750645 -0.937635
v 0.992111 0.542918 -0.956300
v 1.222109 0.258874 -0.981755
v 1.268739 -0.054751 -1.009926
v 1.129148 -0.359105 -1.038224
v 0.815711 -0.610532 -1.061448
v 0.374039 -0.765393 -1.075724
v -0.126421 -0.797681 -1.078741
v -0.607058 -0.702138 -1.069889
v -0.992236 -0.494460 -1.050721
v -1.222246 -0.210473 -1.024467
v -1.268867 0.103090 -0.995564
v -1.129289 0.407523 -0.968444
v -0.815863 0.659013 -0.945872
v -0.374156 0.813920 -0.931962
v -1.092471 -0.268792 -1.028685
v -1.144595 -0.195660 -1.025693
v 1.159631 -0.125106 -1.015591
v 1.117339 -0.264316 -1.030617
v -1.181268 0.169747 -0.990918
v 0.763907 -0.570279 -1.060299
v -0.929186 0.509884 -0.961824
v 0.123268 -0.760517 -1.077855
v -0.118743 0.790448 -0.932060
v 0.123260 0.808861 -0.934943
v -0.568516 0.704398 -0.944382
v 0.763901 0.618591 -0.952074
v -0.568494 -0.656077 -1.068220
v 1.057416 0.383079 -0.973214
v -0.929188 -0.461605 -1.050273
v 1.188134 0.098031 -0.998997
v 0.149986 1.118220 1.533106
v 0.720760 1.005726 1.536061
v 1.178129 0.761210 1.542497
v 1.451128 0.426931 1.551291
v 1.506410 0.058177 1.561006
v 1.340846 -0.299897 1.570405
v 0.968709 -0.595931 1.578178
v 0.444161 -0.778282 1.582975
v -0.150150 -0.816289 1.583974
v -0.720892 -0.703796 1.581019
v -1.178253 -0.459289 1.574586
v -1.451263 -0.124999 1.565781
v -1.506543 0.243755 1.556086
v -1.340969 0.601835 1.546676
v -0.968835 0.897863 1.538902
v -0.444307 1.080207 1.534106
v -1.084683 0.178682 1.215302
v 0.697742 -0.425801 1.229486
v 1.044793 0.310443 1.211891
v 0.683826 0.913320 1.147879
v 1.006990 0.753222 1.151597
v 1.184108 0.614660 1.155232
v 1.315730 0.456575 1.159371
v 1.396762 0.285027 1.163904
v 1.424111 0.106626 1.168621
v 1.396763 -0.071770 1.173286
v 1.315726 -0.243319 1.177779
v 1.184111 -0.401404 1.181949
v 1.006986 -0.539966 1.185601
v 0.791177 -0.653683 1.188592
v 0.422714 -0.771379 1.191587
v -0.142925 -0.808030 1.192370
v -0.685532 -0.699609 1.190122
v -1.007121 -0.539961 1.185604
v -1.184244 -0.401401 1.181950
v -1.315860 -0.243323 1.177776
v -1.396892 -0.071770 1.173287
v -1.424249 0.106629 1.168614
v -1.396890 0.285020 1.163911
v -1.315855 0.456562 1.159388
v -1.184239 0.614660 1.155232
v -1.007118 0.753228 1.151592
v -0.791307 0.866940 1.148609
v -0.421778 0.984628 1.145606
v 0.117525 0.858870 1.149074
v 0.564208 0.769545 1.151022
v 0.919209 0.575828 1.154499
v 1.082046 0.394416 1.161080
v 1.148702 0.253347 1.164796
v 1.171219 0.106637 1.168673
v 1.148705 -0.040075 1.172514
v 1.061334 -0.212286 1.176686
v 0.883950 -0.395857 1.179248
v 0.512250 -0.579609 1.187421
v 0.053275 -0.652633 1.188435
v -0.419785 -0.601690 1.185247
v -0.821194 -0.433315 1.176904
v -1.047851 -0.241547 1.168896
v -1.135689 -0.075533 1.171306
v -1.171345 0.106635 1.168664
v -1.148837 0.253353 1.164804
v -1.043313 0.450476 1.156029
v -0.757484 0.683968 1.152712
v -0.348158 0.828659 1.149744
v 0.557553 0.768147 1.200951
v 0.819181 0.638300 1.204648
v 0.963255 0.525585 1.207616
v 1.070315 0.396969 1.210989
v 1.136252 0.257421 1.214660
v 1.158511 0.112300 1.218480
v 1.136254 -0.032823 1.222297
v 1.070319 -0.172379 1.225967
v 0.963254 -0.300976 1.229339
v 0.747027 -0.459943 1.232489
v 0.343006 -0.601952 1.237181
v -0.115983 -0.631563 1.238091
v -0.556434 -0.543934 1.235332
v -0.819303 -0.413696 1.232299
v -0.963387 -0.300976 1.229339
v -1.070452 -0.172378 1.225967
v -1.136383 -0.032823 1.222298
v -1.158644 0.112300 1.218480
v -1.136380 0.257422 1.214661
v -1.070454 0.396975 1.210998
v -0.963391 0.525560 1.207600
v -0.748614 0.683642 1.202504
v -0.343999 0.826551 1.199770
v 0.050452 0.426626 1.196528
v 0.392216 0.304176 1.185394
v 0.495143 0.075513 1.164527
v 0.323952 -0.140114 1.144941
v -0.050572 -0.216166 1.138012
v -0.392350 -0.093710 1.149157
v -0.495277 0.134956 1.169914
v -0.324086 0.350580 1.189613
v 0.377216 0.817025 -0.926779
v -0.127528 0.849902 -0.923927
v 0.821512 0.659472 -0.940261
v 1.059572 0.483093 -0.957330
v 1.177342 0.340367 -0.970325
v 1.249883 0.185501 -0.984449
v 1.274357 0.024444 -0.999092
v 1.249846 -0.136610 -1.013729
v 1.177340 -0.291492 -1.027848
v 1.059579 -0.434226 -1.040850
v 0.824784 -0.609030 -1.056013
v 0.379164 -0.768092 -1.071318
v -0.128163 -0.801328 -1.074459
v -0.614715 -0.703117 -1.065157
v -0.901217 -0.559333 -1.052242
v -1.059711 -0.434228 -1.040854
v -1.177473 -0.291492 -1.027849
v -1.249986 -0.136615 -1.013738
v -1.274488 0.024442 -0.999093
v -1.250009 0.185506 -0.984443
v -1.177477 0.340365 -0.970328
v -1.059705 0.483107 -0.957338
v -0.901216 0.608208 -0.945953
v -0.611878 0.752674 -0.932348
v -1.159770 -0.125109 -1.015582
v 1.092335 -0.268790 -1.028689
v -1.182475 0.024327 -1.001998
v 0.983066 -0.401208 -1.040749
v -1.159757 0.173768 -0.988392
v 0.761975 -0.564979 -1.056729
v -1.092468 0.317451 -0.975317
v -0.983186 0.449867 -0.963278
v 0.349816 -0.711088 -1.069095
v 0.351238 0.759728 -0.934978
v -0.836148 0.565940 -0.952706
v -0.569611 0.699541 -0.940781
v -0.118272 -0.741566 -1.071718
v 0.764333 0.612471 -0.949376
v -0.567517 -0.651429 -1.063959
v 0.983067 0.449867 -0.963271
v 1.092335 0.317455 -0.975317
v -0.836157 -0.517278 -1.051313
v 1.159612 0.173758 -0.988411
v -0.983199 -0.401208 -1.040749
v 1.182340 0.024328 -1.002002
vn -0.0189 0.1006 -0.9948
vn -0.0223 0.0966 -0.9951
vn -0.0237 0.0921 -0.9955
vn -0.0177 0.1212 -0.9925
vn -0.0305 0.1264 -0.9915
vn -0.0062 0.0512 -0.9987
vn 0.0070 -0.0151 -0.9999
vn 0.0115 0.0533 -0.9985
vn 0.0044 0.1543 -0.9880
vn 0.0041 0.1511 -0.9885
vn -0.0058 0.1237 -0.9923
vn -0.0193 0.1445 -0.9893
vn 0.0219 0.1157 -0.9930
vn 0.0350 0.1174 -0.9925
vn 0.0256 0.1368 -0.9903
vn 0.0104 0.1217 -0.9925
vn 0.0294 0.1026 -0.9943
vn 0.0393 0.0948 -0.9947
vn 0.0188 0.0751 -0.9970
vn 0.0208 0.0802 -0.9966
vn 0.0251 0.0845 -0.9961
vn 0.4534 -0.4024 0.7953
vn 0.9505 -0.1852 0.2494
vn 0.7800 0.3830 0.4949
vn -0.8245 -0.1568 0.5438
vn -0.9783 -0.1329 0.1593
vn -0.5642 -0.7853 0.2549
vn 0.9233 0.3838 0.0155
vn -0.0120 -0.9676 0.2523
vn -0.0696 -0.9925 0.1009
vn -0.3433 0.9121 0.2240
vn 0.2901 0.9424 0.1663
vn 0.0223 0.9997 0.0041
vn -0.6828 0.7290 0.0472
vn -0.3459 0.4499 0.8234
vn -0.8449 0.4659 0.2629
vn 0.5201 -0.8049 0.2857
vn 0.6368 -0.7671 0.0777
vn 0.1571 0.5752 0.8028
vn -0.9882 0.0885 -0.1251
vn -0.8488 0.1931 -0.4921
vn -0.7698 -0.5948 -0.2316
vn -0.5250 -0.6998 -0.4844
vn 0.7464 -0.6625 -0.0633
vn -0.0122 -0.9978 -0.0659
vn -0.0361 -0.9832 -0.1792
vn -0.0773 -0.9126 -0.4015
vn 0.9080 -0.3338 -0.2533
vn 0.4988 -0.7672 -0.4032
vn -0.6561 0.7438 -0.1276
vn -0.0764 0.9925 -0.0956
vn -0.4620 0.8497 -0.2540
vn -0.3836 0.7739 -0.5039
vn 0.7469 0.5664 -0.3484
vn 0.8027 -0.0969 -0.5884
vn 0.5306 0.6937 -0.4871
vn -0.0000 -0.0263 -0.9997
vn 0.0269 -0.9990 0.0369
vn 0.3155 -0.9430 0.1055
vn 0.9865 -0.0682 -0.1487
vn 0.6232 0.7601 -0.1841
vn 0.4802 0.8565 -0.1891
vn -0.1933 -0.2205 -0.9560
vn -0.5107 0.2565 0.8206
vn -0.0604 -0.3510 0.9344
vn -0.0813 0.2062 -0.9751
vn 0.0733 0.3833 0.9207
vn 0.2348 0.2852 -0.9293
vn 0.5218 -0.2090 -0.8270
vn 0.5357 0.2168 0.8161
vn 0.0977 -0.4185 -0.9029
vn 0.3101 -0.3494 0.8842
vn 0.0781 0.1144 -0.9904
vn 0.0221 0.0622 -0.9978
vn 0.0658 0.0375 -0.9971
vn -0.0794 -0.1686 -0.9825
vn -0.0227 -0.1156 -0.9930
vn -0.0658 -0.0899 -0.9938
vn -0.0001 -0.0425 -0.9991
vn 0.0014 -0.0027 -1.0000
vn 0.0216 -0.0116 -0.9997
vn -0.0403 -0.0433 -0.9982
vn -0.0289 -0.0127 -0.9995
vn -0.0666 -0.0291 -0.9974
vn 0.0449 0.0526 -0.9976
vn -0.3471 -0.4892 0.8001
vn 0.0104 -0.6385 0.7696
vn -0.0267 0.0785 -0.9966
vn -0.0260 0.0815 -0.9963
vn 0.0157 0.0670 -0.9976
vn 0.0140 0.0625 -0.9979
vn -0.0122 0.0536 -0.9985
vn -0.0155 0.0536 -0.9984
vn -0.0239 0.0595 -0.9979
vn -0.0260 0.0634 -0.9976
vn -0.6138 -0.7768 0.1408
vn -0.0000 0.0907 -0.9959
vn 0.0758 0.9156 -0.3948
vn 0.1095 0.9562 -0.2713
vn 0.9468 0.3110 -0.0824
vn 0.4723 0.8745 -0.1104
vn -0.6678 -0.7414 -0.0658
vn 0.4111 -0.6803 -0.6068
vn -0.6680 0.1371 -0.7315
vn -0.0000 0.0263 0.9997
vn -0.6914 0.6805 -0.2427
vn -0.8423 -0.4992 -0.2032
vn -0.9145 -0.3404 -0.2187
vn -0.6890 0.6829 -0.2427
vn 0.9484 -0.2569 -0.1860
vn -0.0627 0.9643 -0.2572
vn -0.0648 0.9642 -0.2570
vn -0.0165 0.0983 -0.9950
vn -0.0123 0.0938 -0.9955
vn -0.9186 -0.3166 0.2363
vn 0.1046 0.0091 -0.9945
vn 0.0943 0.0155 -0.9954
vn 0.1311 -0.0421 -0.9905
vn 0.1309 -0.0464 -0.9903
vn 0.1173 -0.1035 -0.9877
vn 0.1100 -0.1175 -0.9870
vn 0.0811 -0.1580 -0.9841
vn 0.0679 -0.1710 -0.9829
vn 0.0172 -0.1533 -0.9880
vn 0.0127 -0.1485 -0.9888
vn -0.1052 -0.0613 -0.9926
vn -0.0941 -0.0683 -0.9932
vn -0.1306 -0.0099 -0.9914
vn -0.1303 -0.0066 -0.9914
vn -0.1156 0.0508 -0.9920
vn -0.1086 0.0637 -0.9920
vn -0.0790 0.1036 -0.9915
vn -0.0664 0.1155 -0.9911
vn 0.0613 -0.1098 -0.9921
vn 0.0313 -0.0469 -0.9984
vn 0.0418 0.0487 -0.9979
vn -0.0948 -0.2505 -0.9635
vn -0.0608 0.1436 -0.9878
vn -0.0417 -0.0392 -0.9984
vn 0.0857 0.0598 -0.9945
vt 0.000000 0.000000
vt 0.000000 0.000000
vt 0.000000 0.000000
vt 0.000000 0.000000
vt 0.000000 0.000000
vt 0.000000 0.000000
vt 0.000000 0.000000
vt 0.000000 0.000000
vt 0.000000 0.000000
vt 0.000000 0.000000
vt 0.000000 0.000000
vt 0.000000 0.000000
vt 0.000000 0.000000
vt 0.000000 0.000000
vt 0.000000 0.000000
vt 0.000000 0.000000
vt 0.000000 0.000000
vt 0.000000 0.000000
vt 0.000000 0.000000
vt 0.000000 0.000000
vt 0.000000 0.000000
vt 0.000000 0.000000
vt 0.000000 0.000000
vt 0.000000 0.000000
vt 0.000000 0.000000
vt 0.000000 0.000000
vt 0.000000 0.000000
vt 0.000000 0.000000
vt 0.000000 0.000000
vt 0.000000 0.000000
vt 0.000000 0.000000
vt 0.000000 0.000000
vt 0.000000 0.000000
vt 0.000000 0.000000
vt 0.000000 0.000000
vt 0.000000 0.000000
vt 0.000000 0.000000
vt 0.000000 0.000000
vt 0.000000 0.000000
vt 0.000000 0.000000
vt 0.000000 0.000000
vt 0.000000 0.000000
vt 0.000000 0.000000
vt 0.000000 0.000000
vt 0.000000 0.000000
vt 0.000000 0.000000
vt 0.000000 0.000000
vt 0.000000 0.000000
vt 0.000000 0.000000
vt 0.000000 0.000000
vt 0.000000 0.000000
vt 0.000000 0.000000
vt 0.000000 0.000000
vt 0.000000 0.000000
vt 0.000000 0.000000
vt 0.000000 0.000000
vt 0.000000 0.000000
vt 0.000000 0.000000
vt 0.000000 0.000000
vt 0.000000 0.000000
vt 0.000000 0.000000
vt 0.000000 0.000000
vt 0.000000 0.000000
vt 0.000000 0.000000
vt 0.000000 0.000000
vt 0.000000 0.000000
vt 0.000000 0.000000
vt 0.000000 0.000000
vt 0.000000 0.000000
vt 0.000000 0.000000
vt 0.000000 0.000000
vt 0.000000 0.000000
vt 0.000000 0.000000
vt 0.000000 0.000000
vt 0.000000 0.000000
vt 0.000000 0.000000
vt 0.000000 0.000000
vt 0.000000 0.000000
vt 0.000000 0.000000
vt 0.000000 0.000000
vt 0.000000 0.000000
vt 0.000000 0.000000
vt 0.000000 0.000000
vt 0.000000 0.000000
vt 0.000000 0.000000
vt 0.000000 0.000000
vt 0.000000 0.000000
vt 0.000000 0.000000
vt 0.000000 0.000000
vt 0.000000 0.000000
vt 0.000000 0.000000
vt 0.000000 0.000000
vt 0.000000 0.000000
vt 0.000000 0.000000
vt 0.000000 0.000000
vt 0.000000 0.000000
vt 0.000000 0.000000
vt 0.000000 0.000000
vt 0.000000 0.000000
vt 0.000000 0.000000
vt 0.000000 0.000000
vt 0.000000 0.000000
vt 0.000000 0.000000
vt 0.000000 0.000000
vt 0.000000 0.000000
vt 0.000000 0.000000
vt 0.000000 0.000000
vt 0.000000 0.000000
vt 0.000000 0.000000
vt 0.000000 0.000000
vt 0.000000 0.000000
vt 0.000000 0.000000
vt 0.000000 0.000000
vt 0.000000 0.000000
vt 0.000000 0.000000
vt 0.000000 0.000000
vt 0.000000 0.000000
vt 0.000000 0.000000
vt 0.000000 0.000000
vt 0.000000 0.000000
vt 0.000000 0.000000
vt 0.000000 0.000000
vt 0.000000 0.000000
vt 0.000000 0.000000
vt 0.000000 0.000000
vt 0.000000 0.000000
vt 0.000000 0.000000
vt 0.000000 0.000000
vt 0.000000 0.000000
vt 0.000000 0.000000
vt 0.000000 0.000000
vt 0.000000 0.000000
vt 0.000000 0.000000
vt 0.000000 0.000000
vt 0.000000 0.000000
vt 0.000000 0.000000
vt 0.000000 0.000000
vt 0.000000 0.000000
vt 0.000000 0.000000
vt 0.000000 0.000000
vt 0.000000 0.000000
vt 0.000000 0.000000
vt 0.000000 0.000000
vt 0.000000 0.000000
vt 0.000000 0.000000
vt 0.000000 0.000000
vt 0.000000 0.000000
vt 0.000000 0.000000
vt 0.000000 0.000000
vt 0.000000 0.000000
vt 0.000000 0.000000
vt 0.000000 0.000000
vt 0.000000 0.000000
vt 0.000000 0.000000
vt 0.000000 0.000000
vt 0.000000 0.000000
vt 0.000000 0.000000
vt 0.000000 0.000000
vt 0.000000 0.000000
vt 0.000000 0.000000
vt 0.000000 0.000000
vt 0.000000 0.000000
vt 0.000000 0.000000
vt 0.000000 0.000000
vt 0.000000 0.000000
vt 0.000000 0.000000
vt 0.000000 0.000000
vt 0.000000 0.000000
vt 0.000000 0.000000
vt 0.000000 0.000000
vt 0.000000 0.000000
vt 0.000000 0.000000
vt 0.000000 0.000000
vt 0.000000 0.000000
vt 0.000000 0.000000
vt 0.000000 0.000000
vt 0.000000 0.000000
vt 0.000000 0.000000
vt 0.000000 0.000000
vt 0.000000 0.000000
vt 0.000000 0.000000
vt 0.000000 0.000000
vt 0.000000 0.000000
vt 0.000000 0.000000
vt 0.000000 0.000000
vt 0.000000 0.000000
vt 0.000000 0.000000
vt 0.000000 0.000000
vt 0.000000 0.000000
vt 0.000000 0.000000
vt 0.000000 0.000000
vt 0.000000 0.000000
s 1
usemtl metal_veliki_motori
f 149/147/1 156/152/2 148/146/3
f 150/148/4 158/154/5 149/147/1
f 144/142/6 159/155/7 143/141/8
f 136/134/9 161/156/10 151/149/11
f 151/149/11 162/157/12 150/148/4
f 138/136/13 165/160/14 163/158/15
f 137/135/16 163/158/15 161/156/10
f 139/137/17 167/162/18 165/160/14
f 141/139/19 155/151/20 140/138/21
f 97/95/22 96/94/23 109/107/24
f 93/91/25 94/92/26 110/108/27
f 96/94/23 106/104/28 109/107/24
f 102/100/29 110/108/27 108/106/30
f 104/102/31 103/101/32 107/105/33
f 109/107/24 106/104/28 103/101/32
f 104/102/31 107/105/33 100/98/34
f 101/99/35 104/102/31 99/97/36
f 97/95/22 98/96/37 96/94/23
f 98/96/37 95/93/38 96/94/23
f 97/95/22 109/107/24 91/89/39
f 124/122/40 125/123/41 126/124/42
f 126/124/42 125/123/41 113/111/43
f 119/117/44 122/120/45 130/128/46
f 122/120/45 126/124/42 130/128/46
f 130/128/46 113/111/43 112/110/47
f 135/133/48 119/117/44 131/129/49
f 118/116/50 120/118/51 132/130/52
f 125/123/41 132/130/52 133/131/53
f 118/116/50 132/130/52 125/123/41
f 127/125/54 134/132/55 115/113/56
f 95/93/38 106/104/28 96/94/23
f 91/89/39 101/99/35 92/90/86 105/103/87 97/95/22
f 156/152/2 153/150/88 147/145/89 148/146/3
f 155/151/20 141/139/19 142/140/90 157/153/91
f 157/153/91 142/140/90 143/141/8 159/155/7
f 149/147/1 158/154/5 156/152/2
f 164/159/92 159/155/7 144/142/6 145/143/93
f 136/134/9 137/135/16 161/156/10
f 150/148/4 162/157/12 158/154/5
f 137/135/16 138/136/13 163/158/15
f 151/149/11 161/156/10 162/157/12
f 166/161/94 164/159/92 145/143/93 146/144/95
f 138/136/13 139/137/17 165/160/14
f 153/150/88 166/161/94 146/144/95 147/145/89
f 139/137/17 140/138/21 167/162/18
f 102/100/29 105/103/87 92/90/86 110/108/27
f 140/138/21 155/151/20 167/162/18
f 110/108/27 94/92/26 111/109/96
f 92/90/86 93/91/25 110/108/27
f 102/100/29 98/96/37 97/95/22 105/103/87
f 108/106/30 110/108/27 111/109/96
f 104/102/31 91/89/39 103/101/32
f 101/99/35 91/89/39 104/102/31
f 91/89/39 109/107/24 103/101/32
f 103/101/32 106/104/28 107/105/33
f 102/100/29 108/106/30 95/93/38
f 99/97/36 104/102/31 100/98/34
f 102/100/29 95/93/38 98/96/37
f 93/91/25 101/99/35 99/97/36
f 94/92/26 99/97/36 100/98/34
f 93/91/25 99/97/36 94/92/26
f 92/90/86 101/99/35 93/91/25
f 262/192/97 255/185/97 256/186/97 257/187/97 258/188/97 259/189/97 260/190/97 261/191/97
f 115/113/56 128/126/98 129/127/99 127/125/54
f 135/133/48 117/115/100 119/117/44
f 127/125/54 123/121/101 117/115/100
f 121/119/102 124/122/40 126/124/42
f 129/127/99 128/126/98 133/131/53 132/130/52
f 129/127/99 123/121/101 127/125/54
f 129/127/99 120/118/51 123/121/101
f 112/110/47 131/129/49 130/128/46
f 131/129/49 119/117/44 130/128/46
f 130/128/46 126/124/42 113/111/43
f 122/120/45 121/119/102 126/124/42
f 132/130/52 120/118/51 129/127/99
f 116/114/103 134/132/55 131/129/49
f 134/132/55 135/133/48 131/129/49
f 134/132/55 127/125/54 135/133/48
f 127/125/54 117/115/100 135/133/48
f 124/122/40 118/116/50 125/123/41
f 114/112/104 125/123/41 133/131/53
f 116/114/103 131/129/49 112/110/47
f 113/111/43 125/123/41 114/112/104
s 0
usemtl metal_crni_krugovi
f 42/42/57 64/63/57 65/64/57
f 43/43/57 65/64/57 66/65/57
f 35/35/57 57/56/57 36/36/57
f 36/36/57 59/58/57 38/38/57
f 45/45/57 67/66/57 46/46/57
f 38/38/57 60/59/57 39/39/57
f 30/30/57 50/50/57 53/52/57
f 46/46/57 69/68/57 48/48/57
f 39/39/57 61/60/57 62/61/57
f 32/32/57 53/52/57 54/53/57
f 48/48/57 70/69/57 30/30/57
f 40/40/57 62/61/57 64/63/57
f 33/33/57 54/53/57 55/54/57
s 1
f 4/4/58 58/57/59 3/3/60
f 3/3/60 52/51/61 2/2/62
f 31/31/63 75/73/64 71/70/65
f 37/37/66 80/78/67 75/73/64
f 41/41/68 80/78/67 37/37/66
f 44/44/69 84/82/70 41/41/68
f 47/47/71 87/85/72 44/44/69
f 13/13/73 73/71/74 74/72/75
f 22/22/76 82/80/77 83/81/78
f 19/19/79 7/7/80 8/8/81
f 19/19/79 9/9/82 27/27/83
f 19/19/79 27/27/83 7/7/80
f 24/24/84 27/27/83 9/9/82
f 11/11/85 8/8/81 7/7/80
s 0
f 55/54/57 57/56/57 35/35/57 33/33/57
f 176/171/105 175/170/105 174/169/105 173/168/105 172/167/105 171/166/105 170/165/105 169/164/105 168/163/105 183/178/105 182/177/105 181/176/105 180/175/105 179/174/105 178/173/105 177/172/105
s 1
f 68/67/106 63/62/107 5/5/108 6/6/109
s 0
f 43/43/57 42/42/57 65/64/57
f 45/45/57 43/43/57 66/65/57
f 36/36/57 57/56/57 59/58/57
f 45/45/57 66/65/57 67/66/57
f 38/38/57 59/58/57 60/59/57
f 30/30/57 70/69/57 50/50/57
f 46/46/57 67/66/57 69/68/57
f 39/39/57 60/59/57 61/60/57
f 32/32/57 30/30/57 53/52/57
f 48/48/57 69/68/57 70/69/57
f 40/40/57 39/39/57 62/61/57
f 33/33/57 32/32/57 54/53/57
f 42/42/57 40/40/57 64/63/57
s 1
f 3/3/60 58/57/59 56/55/110
f 52/51/61 49/49/111 1/1/112 2/2/62
f 68/67/106 6/6/109 1/1/112 49/49/111
f 63/62/107 58/57/59 4/4/58 5/5/108
f 90/88/113 73/71/74 13/13/73 10/10/114
f 3/3/60 56/55/110 52/51/61
f 31/31/63 34/34/115 75/73/64
f 34/34/115 37/37/66 75/73/64
f 41/41/68 84/82/70 80/78/67
f 44/44/69 87/85/72 84/82/70
f 47/47/71 71/70/65 87/85/72
f 74/72/75 76/74/116 186/181/117 13/13/73
f 76/74/116 77/75/118 14/14/119 186/181/117
f 78/76/120 16/16/121 14/14/119 77/75/118
f 79/77/122 185/180/123 16/16/121 78/76/120
f 81/79/124 20/20/125 185/180/123 79/77/122
f 81/79/124 82/80/77 22/22/76 20/20/125
f 83/81/78 85/83/126 23/23/127 22/22/76
f 85/83/126 86/84/128 184/179/129 23/23/127
f 88/86/130 26/26/131 184/179/129 86/84/128
f 89/87/132 28/28/133 26/26/131 88/86/130
f 90/88/113 10/10/114 28/28/133 89/87/132
f 18/18/134 19/19/79 15/15/135 17/17/134
f 19/19/79 8/8/81 15/15/135
f 11/11/85 12/12/136 8/8/81
f 19/19/79 21/21/137 9/9/82
f 27/27/83 29/29/138 7/7/80
f 27/27/83 24/24/84 25/25/139
f 226/184/140 224/182/140 225/183/140
f 47/47/71 31/31/63 71/70/65
l 266 267
l 270 271
l 278 279
l 282 283
l 154 288
l 290 292
l 302 303
l 154 307
l 189 190
l 193 194
l 197 198
l 201 202
l 205 206
l 209 210
l 213 214
l 217 218
l 274 275
l 221 222
l 234 235
l 229 230
l 233 234
l 215 216
l 237 238
l 241 242
l 245 246
l 249 250
l 253 254
l 265 266
l 269 270
l 273 274
l 277 278
l 281 282
l 285 286
l 289 291
l 293 294
l 297 298
l 301 304
l 305 307
l 204 205
l 190 191
l 194 195
l 198 199
l 202 203
l 206 207
l 210 211
l 214 215
l 218 219
l 222 223
l 226 227
l 230 231
l 294 297
l 238 239
l 242 243
l 246 247
l 250 251
l 268 269
l 272 273
l 280 281
l 284 285
l 286 264
l 152 287
l 288 290
l 292 295
l 298 160
l 296 300
l 300 302
l 304 306
l 228 229
l 51 187
l 187 188
l 191 192
l 195 196
l 199 200
l 203 204
l 207 208
l 51 211
l 219 220
l 223 224
l 227 228
l 235 236
l 239 240
l 243 244
l 276 277
l 247 248
l 251 252
l 263 264
l 263 265
l 267 268
l 271 272
l 275 276
l 279 280
l 283 284
l 291 293
l 295 299
l 299 301
l 303 305
l 287 289
l 152 306
l 160 296
l 188 189
l 192 193
l 196 197
l 200 201
l 208 209
l 212 213
l 216 217
l 220 221
l 212 231
l 72 232
l 232 233
l 236 237
l 240 241
l 244 245
l 248 249
l 252 253
l 72 254
